<svg xmlns="http://www.w3.org/2000/svg" viewBox="0 0 120 24" width="120" height="24">
    <path fill="#FFD700" d="M12 2l2.4 7.4h7.8l-6.3 4.6 2.4 7.4-6.3-4.6-6.3 4.6 2.4-7.4L2 9.4h7.8z"/>
    <path fill="#FFD700" d="M36 2l2.4 7.4h7.8l-6.3 4.6 2.4 7.4-6.3-4.6-6.3 4.6 2.4-7.4-6.3-4.6h7.8z"/>
    <path fill="#FFD700" d="M60 2l2.4 7.4h7.8l-6.3 4.6 2.4 7.4-6.3-4.6-6.3 4.6 2.4-7.4-6.3-4.6h7.8z"/>
    <path fill="#FFD700" d="M84 2l2.4 7.4h7.8l-6.3 4.6 2.4 7.4-6.3-4.6-6.3 4.6 2.4-7.4-6.3-4.6h7.8z"/>
    <path fill="#FFD700" d="M108 2l2.4 7.4h7.8l-6.3 4.6 2.4 7.4-6.3-4.6-6.3 4.6 2.4-7.4-6.3-4.6h7.8z"/>
</svg>